<svg width="800" height="400" viewBox="0 0 800 400" xmlns="http://www.w3.org/2000/svg"><mask id="satori_om-id"><rect x="0" y="0" width="800" height="400" fill="#fff"/></mask><rect x="0" y="0" width="800" height="400" fill="#fff"/><clipPath id="satori_cp-id-0"><rect x="296" y="180" width="40" height="40"/></clipPath><mask id="satori_om-id-0"><rect x="296" y="180" width="40" height="40" fill="#fff"/></mask><image x="296" y="180" width="40" height="40" href="data:image/svg+xml;utf8,%3Csvg  stroke=%22%232563EB%22 fill=%22%232563EB%22 stroke-width=%220%22 class=%22text-primary%22 xmlns=%22http://www.w3.org/2000/svg%22 width=%2240%22 height=%2240%22 viewBox=%220 0 24 24%22%3E%3Cpath d=%22M17.168 8H13l.806-4.835A1 1 0 0 0 12.819 2H7.667a1 1 0 0 0-.986.835l-1.667 10A1 1 0 0 0 6 14h4v8l8.01-12.459A1 1 0 0 0 17.168 8z%22%3E%3C/path%3E%3C/svg%3E" preserveAspectRatio="none" clip-path="url(#satori_cp-id-0)" mask="url(#satori_om-id-0)"/><mask id="satori_om-id-0-0"><rect x="296" y="180" width="0" height="40" fill="#fff"/></mask><mask id="satori_om-id-1"><rect x="336" y="181" width="168" height="38" fill="#fff"/></mask><path fill="2563EB" d="M342.8 211.0L337.9 211.0L337.9 193.5L342.5 193.5L342.5 196.6L342.8 196.6Q343.3 195.0 344.6 194.2Q345.8 193.3 347.6 193.3L347.6 193.3Q349.4 193.3 350.7 194.2Q351.9 195.1 352.4 196.6L352.4 196.6L352.5 196.6Q353.1 195.1 354.5 194.2Q355.9 193.3 357.8 193.3L357.8 193.3Q360.2 193.3 361.8 194.8Q363.3 196.4 363.3 199.2L363.3 199.2L363.3 211.0L358.5 211.0L358.5 200.2Q358.5 198.7 357.7 198.0Q356.9 197.3 355.8 197.3L355.8 197.3Q354.4 197.3 353.7 198.1Q353.0 198.9 353.0 200.3L353.0 200.3L353.0 211.0L348.3 211.0L348.3 200.1Q348.3 198.8 347.5 198.0Q346.8 197.3 345.6 197.3L345.6 197.3Q344.8 197.3 344.2 197.7Q343.5 198.1 343.1 198.8Q342.8 199.5 342.8 200.5L342.8 200.5L342.8 211.0ZM375 211.3L375 211.3Q372.4 211.3 370.4 210.2Q368.5 209.0 367.5 207.0Q366.4 205.0 366.4 202.3L366.4 202.3Q366.4 199.6 367.5 197.6Q368.5 195.5 370.4 194.4Q372.4 193.3 375 193.3L375 193.3Q377.6 193.3 379.6 194.4Q381.5 195.5 382.5 197.6Q383.6 199.6 383.6 202.3L383.6 202.3Q383.6 205.0 382.5 207.0Q381.5 209.0 379.6 210.2Q377.6 211.3 375 211.3ZM375.0 207.5L375.0 207.5Q376.2 207.5 377.0 206.9Q377.8 206.2 378.3 205.0Q378.7 203.8 378.7 202.3L378.7 202.3Q378.7 200.7 378.3 199.5Q377.8 198.3 377.0 197.7Q376.2 197.0 375.0 197.0L375.0 197.0Q373.8 197.0 373.0 197.7Q372.2 198.3 371.7 199.5Q371.3 200.7 371.3 202.3L371.3 202.3Q371.3 203.8 371.7 205.0Q372.2 206.2 373.0 206.9Q373.8 207.5 375.0 207.5ZM391.6 200.9L391.6 200.9L391.6 211.0L386.8 211.0L386.8 193.5L391.4 193.5L391.4 196.6L391.6 196.6Q392.1 195.1 393.5 194.2Q394.9 193.3 396.8 193.3L396.8 193.3Q398.6 193.3 400.0 194.1Q401.3 194.9 402.1 196.3Q402.8 197.8 402.8 199.8L402.8 199.8L402.8 211.0L398 211.0L398 200.7Q398.0 199.1 397.2 198.2Q396.4 197.3 394.9 197.3L394.9 197.3Q393.9 197.3 393.2 197.7Q392.4 198.1 392.0 198.9Q391.6 199.7 391.6 200.9ZM414.6 211.3L414.6 211.3Q411.9 211.3 410.0 210.2Q408.0 209.1 407.0 207.1Q405.9 205.1 405.9 202.3L405.9 202.3Q405.9 199.6 407.0 197.6Q408.0 195.5 409.9 194.4Q411.8 193.3 414.4 193.3L414.4 193.3Q416.1 193.3 417.6 193.8Q419.1 194.4 420.2 195.5Q421.4 196.6 422.0 198.2Q422.6 199.9 422.6 202.1L422.6 202.1L422.6 203.5L407.9 203.5L407.9 200.5L418.1 200.5Q418.1 199.4 417.6 198.6Q417.1 197.8 416.3 197.3Q415.5 196.9 414.5 196.9L414.5 196.9Q413.4 196.9 412.5 197.4Q411.7 197.9 411.2 198.7Q410.7 199.6 410.7 200.6L410.7 200.6L410.7 203.5Q410.7 204.8 411.2 205.7Q411.7 206.7 412.6 207.2Q413.5 207.7 414.7 207.7L414.7 207.7Q415.5 207.7 416.2 207.5Q416.8 207.2 417.3 206.8Q417.8 206.3 418.0 205.7L418.0 205.7L422.5 206.0Q422.2 207.6 421.1 208.8Q420.1 210.0 418.4 210.6Q416.8 211.3 414.6 211.3ZM428.3 217.5L428.3 217.5Q427.4 217.5 426.6 217.4Q425.7 217.2 425.2 217.0L425.2 217.0L426.3 213.4Q427.2 213.6 427.9 213.7Q428.5 213.7 429.1 213.3Q429.6 213.0 429.9 212.2L429.9 212.2L430.2 211.5L423.9 193.5L429.0 193.5L432.6 206.3L432.8 206.3L436.4 193.5L441.6 193.5L434.8 212.8Q434.3 214.2 433.4 215.3Q432.6 216.3 431.3 216.9Q430.1 217.5 428.3 217.5ZM448.9 211.0L444.1 211.0L444.1 187.7L449.0 187.7L449.0 196.4L449.1 196.4Q449.4 195.7 450.0 195.0Q450.6 194.3 451.6 193.8Q452.6 193.3 454.1 193.3L454.1 193.3Q456.0 193.3 457.6 194.3Q459.2 195.3 460.2 197.3Q461.1 199.2 461.1 202.2L461.1 202.2Q461.1 205.2 460.2 207.2Q459.3 209.2 457.7 210.2Q456.1 211.2 454.1 211.2L454.1 211.2Q452.7 211.2 451.7 210.8Q450.7 210.3 450.1 209.6Q449.4 208.9 449.1 208.2L449.1 208.2L448.9 208.2L448.9 211.0ZM448.9 202.2L448.9 202.2Q448.9 203.8 449.3 204.9Q449.7 206.1 450.5 206.7Q451.4 207.4 452.5 207.4L452.5 207.4Q453.7 207.4 454.5 206.7Q455.4 206.1 455.8 204.9Q456.2 203.7 456.2 202.2L456.2 202.2Q456.2 200.7 455.8 199.6Q455.4 198.4 454.5 197.8Q453.7 197.1 452.5 197.1L452.5 197.1Q451.4 197.1 450.5 197.7Q449.7 198.4 449.3 199.5Q448.9 200.7 448.9 202.2ZM472.2 211.3L472.2 211.3Q469.6 211.3 467.7 210.2Q465.7 209.0 464.7 207.0Q463.7 205.0 463.7 202.3L463.7 202.3Q463.7 199.6 464.7 197.6Q465.7 195.5 467.7 194.4Q469.6 193.3 472.2 193.3L472.2 193.3Q474.9 193.3 476.8 194.4Q478.7 195.5 479.8 197.6Q480.8 199.6 480.8 202.3L480.8 202.3Q480.8 205.0 479.8 207.0Q478.7 209.0 476.8 210.2Q474.9 211.3 472.2 211.3ZM472.3 207.5L472.3 207.5Q473.5 207.5 474.3 206.9Q475.1 206.2 475.5 205.0Q475.9 203.8 475.9 202.3L475.9 202.3Q475.9 200.7 475.5 199.5Q475.1 198.3 474.3 197.7Q473.5 197.0 472.3 197.0L472.3 197.0Q471.1 197.0 470.2 197.7Q469.4 198.3 469.0 199.5Q468.6 200.7 468.6 202.3L468.6 202.3Q468.6 203.8 469.0 205.0Q469.4 206.2 470.2 206.9Q471.1 207.5 472.3 207.5ZM484.0 187.7L488.8 187.7L488.8 211.0L484.0 211.0L484.0 187.7ZM491.5 193.5L502.0 193.5L502.0 197.1L491.5 197.1L491.5 193.5ZM493.9 206.2L493.9 189.3L498.7 189.3L498.7 205.6Q498.7 206.3 498.9 206.6Q499.1 207.0 499.5 207.1Q499.9 207.3 500.3 207.3L500.3 207.3Q500.7 207.3 501.0 207.2Q501.4 207.2 501.5 207.1L501.5 207.1L502.3 210.7Q501.9 210.8 501.3 211.0Q500.6 211.2 499.7 211.2L499.7 211.2Q497.9 211.3 496.6 210.7Q495.3 210.2 494.6 209.1Q493.9 207.9 493.9 206.2L493.9 206.2Z "/></svg>